<?xml version="1.0" encoding="UTF-8"?>
<svg version="1.1" xmlns="http://www.w3.org/2000/svg" width="16" height="16">
<path d="M0 0 C5.28 0 10.56 0 16 0 C16 5.28 16 10.56 16 16 C10.72 16 5.44 16 0 16 C0 10.72 0 5.44 0 0 Z " fill="#292724" transform="translate(0,0)"/>
<path d="M0 0 C1.65 0 3.3 0 5 0 C4.01 0.495 4.01 0.495 3 1 C3.99 1.33 4.98 1.66 6 2 C6.5625 3.9375 6.5625 3.9375 7 6 C7.66 6.66 8.32 7.32 9 8 C7.02 8.99 7.02 8.99 5 10 C5.66 10.33 6.32 10.66 7 11 C7 11.66 7 12.32 7 13 C7.66 13 8.32 13 9 13 C9 12.34 9 11.68 9 11 C9.66 11.33 10.32 11.66 11 12 C10 15 10 15 8 16 C5.36 16 2.72 16 0 16 C0 10.72 0 5.44 0 0 Z " fill="#1A1918" transform="translate(0,0)"/>
<path d="M0 0 C3.63 0 7.26 0 11 0 C11.37211538 9.55096154 11.37211538 9.55096154 9.48828125 11.82421875 C8.75158203 12.40623047 8.75158203 12.40623047 8 13 C8.06510417 11.01432292 8.13020833 9.02864583 8.1953125 7.04296875 C8.13254462 4.68640281 8.13254462 4.68640281 6 2 C2.93443402 1.26656572 2.93443402 1.26656572 0 1 C0 0.67 0 0.34 0 0 Z " fill="#4B4233" transform="translate(5,0)"/>
<path d="M0 0 C1.27875 -0.061875 2.5575 -0.12375 3.875 -0.1875 C4.95394531 -0.23970703 4.95394531 -0.23970703 6.0546875 -0.29296875 C6.69664063 -0.19628906 7.33859375 -0.09960938 8 0 C8.66 0.99 9.32 1.98 10 3 C9.01 4.485 9.01 4.485 8 6 C6.35 5.67 4.7 5.34 3 5 C3 3.68 3 2.36 3 1 C2.01 1.33 1.02 1.66 0 2 C0 1.34 0 0.68 0 0 Z " fill="#333029" transform="translate(3,1)"/>
<path d="M0 0 C1.98 0 3.96 0 6 0 C6.33 0.99 6.66 1.98 7 3 C6.01 3 5.02 3 4 3 C4 3.66 4 4.32 4 5 C3.34 5 2.68 5 2 5 C2 4.34 2 3.68 2 3 C1.01 2.67 0.02 2.34 -1 2 C-0.67 1.34 -0.34 0.68 0 0 Z " fill="#62573B" transform="translate(5,8)"/>
</svg>
